{"glyphs":{":":{"x_min":0,"x_max":302,"ha":302,"o":"m 158 279 q 119 279 94 304 q 69 330 69 368 q 69 406 94 431 q 120 456 158 456 q 195 456 221 430 q 247 405 247 368 q 247 331 221 305 q 195 279 158 279 z m 106 -12 q 67 -12 42 13 q 16 39 16 77 q 16 115 42 140 q 67 165 106 165 q 144 165 169 139 q 195 114 195 77 q 195 40 169 14 q 143 -12 106 -12 z"},"$":{"x_min":0,"x_max":528,"ha":528,"o":"m 275 294 l 238 86 q 241 86 246 85 q 250 85 253 85 q 303 85 329 113 q 355 142 355 196 q 355 230 336 254 q 318 277 275 294 z m 240 421 l 266 583 l 259 583 q 218 583 194 561 q 171 538 171 499 q 171 471 187 452 q 204 433 240 421 z m 206 -95 l 147 -95 l 163 -1 q 146 1 130 10 q 114 19 84 43 l 75 -14 l 7 -14 l 34 206 l 103 206 q 107 154 124 128 q 141 103 178 92 l 219 310 q 137 344 100 388 q 62 433 62 495 q 62 571 114 619 q 167 667 251 667 q 258 667 266 667 q 273 667 282 666 l 294 726 l 353 726 l 339 654 q 369 645 386 634 q 403 624 410 610 l 423 663 l 493 663 l 458 462 l 397 462 q 392 506 375 532 q 357 559 324 574 l 294 402 q 384 366 425 316 q 465 267 465 193 q 465 99 406 42 q 348 -14 249 -14 q 245 -14 232 -13 q 225 -12 221 -12 z"},"?":{"x_min":0,"x_max":525,"ha":525,"o":"m 218 -12 q 179 -12 154 13 q 129 39 129 77 q 129 115 154 140 q 180 165 218 165 q 255 165 281 139 q 307 114 307 77 q 307 40 281 14 q 255 -12 218 -12 z m 173 236 l 213 430 l 244 430 q 308 430 341 457 q 373 484 373 538 q 373 581 347 608 q 321 635 279 635 q 232 635 206 605 q 181 576 179 520 l 73 520 q 77 623 132 678 q 187 734 284 734 q 373 734 430 678 q 487 623 487 535 q 487 456 438 403 q 389 350 312 345 l 290 236 z"},"<":{"x_min":0,"x_max":833,"ha":833,"o":"m 704 574 l 704 484 l 248 298 l 704 112 l 704 23 l 129 259 l 129 337 z"},"'":{"x_min":0,"x_max":163,"ha":163,"o":"m 42 701 l 122 701 l 122 429 l 42 429 z"},"=":{"x_min":0,"x_max":833,"ha":833,"o":"m 124 238 l 709 238 l 709 157 l 124 157 z m 124 440 l 709 440 l 709 358 l 124 358 z"},"a":{"x_min":0,"x_max":618,"ha":618,"o":"m 240 80 q 309 80 352 130 q 396 179 396 257 q 396 313 360 350 q 325 387 269 387 q 204 387 159 336 q 115 285 115 209 q 115 150 149 115 q 183 80 240 80 z m 429 465 l 605 465 l 588 369 l 526 369 l 477 96 l 543 96 l 526 0 l 344 0 l 353 38 q 320 14 284 1 q 249 -11 210 -11 q 118 -11 59 51 q 0 112 0 209 q 0 322 76 399 q 153 477 266 477 q 315 477 354 459 q 394 441 419 408 z"},"L":{"x_min":0,"x_max":558,"ha":558,"o":"m 186 98 l 385 98 l 406 208 l 514 208 l 477 0 l -37 0 l -19 98 l 57 98 l 149 622 l 72 622 l 90 720 l 372 720 l 355 622 l 278 622 z"},"3":{"x_min":0,"x_max":528,"ha":528,"o":"m 20 238 l 134 238 q 133 229 133 221 q 133 213 133 206 q 133 144 158 115 q 183 87 236 87 q 290 87 319 119 q 348 152 348 211 q 348 264 318 293 q 289 321 229 326 l 242 403 q 248 402 254 402 q 260 402 272 402 q 327 402 360 436 q 393 469 393 525 q 393 568 370 592 q 348 616 306 616 q 257 616 229 588 q 202 560 194 503 l 83 503 q 90 603 150 659 q 209 716 306 716 q 401 716 457 666 q 512 617 512 532 q 512 466 484 418 q 456 370 404 347 q 435 319 451 282 q 468 246 468 204 q 468 104 405 45 q 341 -14 232 -14 q 128 -14 73 39 q 17 91 17 189 q 17 200 18 212 q 19 225 20 238 z"},";":{"x_min":0,"x_max":302,"ha":302,"o":"m -30 -95 l 70 117 l 196 117 l 94 -95 z m 158 279 q 119 279 94 304 q 69 330 69 368 q 69 406 94 431 q 120 456 158 456 q 195 456 221 430 q 247 405 247 368 q 247 331 221 305 q 195 279 158 279 z"},"J":{"x_min":0,"x_max":358,"ha":358,"o":"m 206 98 q 182 -39 145 -78 q 108 -116 34 -116 q 18 -116 -4 -114 q -26 -112 -54 -108 l -28 12 q -11 7 -2 5 q 6 4 12 4 q 40 4 53 21 q 67 39 77 98 l 169 622 l 92 622 l 110 720 l 392 720 l 375 622 l 298 622 z"},"V":{"x_min":0,"x_max":625,"ha":625,"o":"m 269 -14 l 194 -14 l 111 622 l 53 622 l 70 720 l 320 720 l 302 622 l 231 622 l 278 235 l 480 622 l 402 622 l 419 720 l 679 720 l 662 622 l 604 622 z"},"\"":{"x_min":0,"x_max":314,"ha":314,"o":"m 193 701 l 273 701 l 273 429 l 193 429 z m 42 701 l 122 701 l 122 429 l 42 429 z"},"7":{"x_min":0,"x_max":528,"ha":528,"o":"m 199 598 l 175 478 l 62 478 l 103 701 l 534 701 l 513 572 l 229 0 l 101 0 l 400 598 z"},"S":{"x_min":0,"x_max":567,"ha":567,"o":"m 106 69 l 94 0 l -17 0 l 26 244 l 124 244 q 135 170 179 126 q 224 82 287 82 q 335 82 367 112 q 400 143 400 187 q 400 223 380 246 q 360 269 305 293 l 250 317 q 150 360 108 409 q 66 458 66 528 q 66 620 126 677 q 186 734 283 734 q 334 734 374 718 q 414 701 451 665 l 461 720 l 560 720 l 522 505 l 423 505 q 418 563 382 599 q 345 634 289 634 q 247 634 221 610 q 195 586 195 547 q 195 512 218 486 q 241 461 295 437 l 376 401 q 456 365 492 318 q 528 271 528 203 q 528 110 463 48 q 399 -14 299 -14 q 235 -14 188 6 q 141 26 106 69 z"},"}":{"x_min":0,"x_max":500,"ha":500,"o":"m 74 721 l 96 721 q 152 721 184 716 q 215 710 237 697 q 265 681 276 650 q 287 620 287 550 l 287 429 q 287 359 312 330 q 338 302 400 302 q 403 302 410 302 q 417 303 421 303 l 421 216 q 417 216 410 216 q 403 217 400 217 q 338 217 313 188 q 287 159 287 89 l 287 -32 q 287 -102 276 -132 q 265 -162 237 -178 q 216 -191 184 -197 q 152 -202 96 -202 l 74 -202 l 74 -116 q 78 -116 85 -117 q 93 -117 96 -117 q 149 -117 168 -97 q 187 -76 187 -11 l 187 106 q 187 181 209 213 q 231 245 287 259 q 231 272 209 304 q 187 336 187 412 l 187 530 q 187 594 168 615 q 150 635 97 635 q 94 635 86 634 q 78 634 74 634 z"},"Z":{"x_min":0,"x_max":521,"ha":521,"o":"m 441 0 l -18 0 l -1 98 l 372 622 l 180 622 l 163 532 l 47 532 l 81 720 l 536 720 l 519 622 l 144 98 l 341 98 l 360 210 l 478 210 z"},"x":{"x_min":0,"x_max":524,"ha":524,"o":"m 234 171 l 157 96 l 141 0 l -33 0 l -16 96 l 31 96 l 188 242 l 103 369 l 45 369 l 62 465 l 233 465 l 220 387 l 264 316 l 334 387 l 348 465 l 509 465 l 493 369 l 446 369 l 311 246 l 412 96 l 470 96 l 453 0 l 265 0 l 281 96 z"},")":{"x_min":0,"x_max":343,"ha":343,"o":"m 190 734 q 225 653 241 572 q 258 490 258 404 q 258 232 199 85 q 141 -62 28 -175 l -35 -121 q 56 -20 103 128 q 151 275 151 455 q 151 523 141 586 q 130 649 109 711 z"},"&":{"x_min":0,"x_max":759,"ha":759,"o":"m 391 162 l 249 333 q 193 299 167 266 q 140 232 140 196 q 140 153 171 124 q 203 94 250 94 q 283 94 317 110 q 350 126 391 162 z m 283 468 q 332 499 354 527 q 376 554 376 584 q 376 612 356 631 q 336 650 308 650 q 277 650 256 627 q 235 604 235 571 q 235 549 246 524 q 258 500 283 468 z m 687 0 l 526 0 l 457 82 q 406 34 348 10 q 291 -14 230 -14 q 141 -14 81 45 q 21 104 21 192 q 21 258 60 310 q 98 362 185 412 q 154 456 141 488 q 128 520 128 553 q 128 631 179 682 q 231 734 309 734 q 382 734 429 691 q 476 648 476 580 q 476 525 447 482 q 418 438 351 392 l 473 245 q 501 279 521 312 q 541 346 554 382 l 505 382 l 522 474 l 738 474 l 721 382 l 662 382 q 634 312 602 257 q 571 202 538 166 l 595 98 l 704 98 z"},"_":{"x_min":0,"x_max":500,"ha":500,"o":"m 0 -152 l 500 -152 l 500 -236 l 0 -236 z"},"v":{"x_min":0,"x_max":509,"ha":509,"o":"m 135 0 l 44 369 l -9 369 l 8 465 l 231 465 l 213 369 l 159 369 l 203 149 l 328 369 l 273 369 l 290 465 l 508 465 l 491 369 l 446 369 l 213 0 z"},"O":{"x_min":0,"x_max":814,"ha":814,"o":"m 386 -14 q 227 -14 127 81 q 27 176 27 324 q 27 421 62 500 q 96 580 163 637 q 218 685 286 709 q 354 734 429 734 q 588 734 687 640 q 786 547 786 397 q 786 219 672 103 q 558 -14 386 -14 z m 381 105 q 499 105 577 185 q 656 266 656 385 q 656 487 592 552 q 528 617 428 617 q 316 617 238 535 q 159 454 159 337 q 159 235 222 170 q 285 105 381 105 z"},"(":{"x_min":0,"x_max":343,"ha":343,"o":"m 131 -175 q 97 -94 80 -13 q 63 68 63 154 q 63 326 121 473 q 180 621 293 734 l 356 679 q 265 578 218 431 q 170 284 170 104 q 170 36 180 -28 q 191 -91 212 -153 z"},"C":{"x_min":0,"x_max":738,"ha":738,"o":"m 696 159 q 645 73 567 30 q 490 -14 389 -14 q 228 -14 127 80 q 27 175 27 324 q 27 503 143 619 q 259 735 436 735 q 517 735 573 712 q 630 688 666 641 l 679 720 l 780 720 l 736 473 l 635 473 q 620 546 570 582 q 520 617 433 617 q 316 617 238 536 q 159 455 159 337 q 159 232 223 168 q 288 104 393 104 q 461 104 510 131 q 559 158 584 208 z"},"W":{"x_min":0,"x_max":963,"ha":963,"o":"m 267 -14 l 194 -14 l 111 622 l 53 622 l 70 720 l 303 720 l 286 622 l 229 622 l 274 239 l 460 622 l 402 622 l 419 720 l 667 720 l 650 622 l 589 622 l 635 236 l 828 622 l 766 622 l 783 720 l 1015 720 l 998 622 l 952 622 l 632 -14 l 559 -14 l 497 469 z"},"A":{"x_min":0,"x_max":736,"ha":736,"o":"m 156 98 l 230 98 l 213 0 l -44 0 l -26 98 l 32 98 l 304 622 l 224 622 l 241 720 l 597 720 l 580 622 l 513 622 l 615 98 l 681 98 l 664 0 l 397 0 l 414 98 l 492 98 l 469 241 l 227 241 z m 274 335 l 452 335 l 402 591 z"},"f":{"x_min":0,"x_max":314,"ha":314,"o":"m 100 369 l 29 369 l 46 465 l 116 465 l 137 584 q 150 656 186 688 q 222 720 290 720 q 303 720 320 719 q 336 718 355 716 l 340 627 q 335 627 325 629 q 314 630 310 630 q 282 630 269 615 q 256 601 247 551 l 232 465 l 302 465 l 285 369 l 216 369 l 167 96 l 237 96 l 220 0 l -36 0 l -19 96 l 51 96 z"},"Q":{"x_min":0,"x_max":814,"ha":814,"o":"m 509 5 l 521 -35 l 646 -35 l 646 -141 l 458 -141 l 416 -12 q 410 -13 402 -13 q 395 -13 381 -13 q 225 -13 126 82 q 27 177 27 324 q 27 421 62 500 q 96 580 163 637 q 218 685 286 709 q 354 734 429 734 q 588 734 687 640 q 786 547 786 397 q 786 253 713 151 q 641 48 509 5 z m 471 118 q 556 148 606 220 q 656 293 656 385 q 656 487 592 552 q 528 617 428 617 q 316 617 238 535 q 159 454 159 337 q 159 236 218 173 q 276 111 378 104 l 351 186 l 440 215 z"},"w":{"x_min":0,"x_max":780,"ha":780,"o":"m 125 0 l 46 369 l -10 369 l 7 465 l 221 465 l 204 369 l 150 369 l 193 151 l 324 369 l 270 369 l 287 465 l 501 465 l 484 369 l 430 369 l 473 151 l 605 369 l 552 369 l 569 465 l 780 465 l 763 369 l 713 369 l 482 0 l 410 0 l 364 270 l 198 0 z"},"-":{"x_min":0,"x_max":308,"ha":308,"o":"m -1 181 l 17 284 l 265 284 l 247 181 z"},"E":{"x_min":0,"x_max":586,"ha":586,"o":"m 186 98 l 405 98 l 425 208 l 533 208 l 495 0 l -37 0 l -19 98 l 57 98 l 149 622 l 72 622 l 90 720 l 597 720 l 573 530 l 466 530 l 478 622 l 278 622 l 247 442 l 417 442 l 400 331 l 226 331 z"},"s":{"x_min":0,"x_max":454,"ha":454,"o":"m 9 159 l 91 159 q 109 115 140 91 q 171 67 211 67 q 244 67 265 82 q 286 96 286 119 q 286 139 270 154 q 253 168 217 181 l 128 212 q 77 230 51 260 q 26 291 26 334 q 26 396 73 437 q 121 477 194 477 q 239 477 274 462 q 309 447 328 419 l 333 465 l 419 465 l 395 323 l 304 323 q 291 361 262 382 q 234 402 195 402 q 165 402 145 389 q 125 375 125 356 q 125 336 140 323 q 155 310 197 295 l 285 264 q 337 245 366 211 q 394 177 394 133 q 394 67 347 28 q 300 -12 221 -12 q 166 -12 129 2 q 92 16 73 44 l 71 0 l -18 0 z"},">":{"x_min":0,"x_max":833,"ha":833,"o":"m 129 574 l 704 337 l 704 259 l 129 23 l 129 112 l 585 298 l 129 484 z"},"l":{"x_min":0,"x_max":299,"ha":299,"o":"m 164 96 l 229 96 l 212 0 l -33 0 l -16 96 l 48 96 l 141 624 l 76 624 l 93 720 l 273 720 z"},"8":{"x_min":0,"x_max":528,"ha":528,"o":"m 397 337 q 428 317 445 284 q 461 250 461 208 q 461 110 396 48 q 332 -14 229 -14 q 130 -14 71 41 q 11 95 11 185 q 11 250 45 299 q 79 348 141 374 q 114 415 102 447 q 90 478 90 507 q 90 595 152 654 q 214 714 306 714 q 394 714 451 660 q 509 606 509 524 q 509 462 480 414 q 452 367 397 337 z m 230 88 q 279 88 312 123 q 344 158 344 210 q 344 255 316 283 q 288 311 243 311 q 191 311 159 275 q 127 240 127 182 q 127 144 157 116 q 188 88 230 88 z m 294 405 q 340 405 371 437 q 402 469 402 517 q 402 563 375 591 q 348 618 303 618 q 256 618 226 584 q 195 550 195 499 q 195 459 224 432 q 252 405 294 405 z"},"\\":{"x_min":0,"x_max":333,"ha":333,"o":"m 227 -93 l 41 734 l 106 734 l 291 -93 z"},"e":{"x_min":0,"x_max":560,"ha":560,"o":"m 404 282 q 401 329 369 355 q 337 382 283 382 q 228 382 187 355 q 146 328 132 282 z m 504 206 l 120 206 q 123 147 157 115 q 192 83 252 83 q 294 83 331 99 q 369 115 397 146 l 477 98 q 438 43 380 16 q 322 -12 246 -12 q 137 -12 70 50 q 3 111 3 210 q 3 324 83 400 q 162 477 282 477 q 385 477 450 420 q 514 363 514 273 q 514 259 512 243 q 509 227 504 206 z"},"b":{"x_min":0,"x_max":617,"ha":617,"o":"m 331 386 q 262 386 218 337 q 175 288 175 209 q 175 153 212 116 q 249 80 306 80 q 369 80 412 131 q 455 181 455 254 q 455 316 422 351 q 389 386 331 386 z m 141 0 l -35 0 l -18 96 l 46 96 l 139 624 l 72 624 l 89 720 l 271 720 l 217 427 q 247 452 283 465 q 320 477 362 477 q 454 477 512 416 q 570 355 570 258 q 570 146 498 68 q 426 -10 320 -10 q 268 -10 226 10 q 184 30 156 69 z"},"%":{"x_min":0,"x_max":887,"ha":887,"o":"m 676 96 q 710 96 733 119 q 756 143 756 177 q 756 211 733 235 q 709 258 676 258 q 643 258 619 234 q 596 211 596 177 q 596 143 619 120 q 643 96 676 96 z m 853 177 q 853 103 801 52 q 749 0 676 0 q 603 0 551 52 q 499 104 499 177 q 499 251 551 302 q 602 353 676 353 q 750 353 802 302 q 853 251 853 177 z m 616 715 l 686 715 l 270 -14 l 200 -14 z m 211 444 q 245 444 268 467 q 291 491 291 525 q 291 560 268 583 q 245 606 211 606 q 177 606 154 583 q 130 559 130 525 q 130 491 154 468 q 177 444 211 444 z m 387 525 q 387 451 335 400 q 283 348 210 348 q 137 348 86 400 q 34 451 34 525 q 34 599 85 650 q 136 701 210 701 q 284 701 336 650 q 387 599 387 525 z"},"m":{"x_min":0,"x_max":875,"ha":875,"o":"m 227 465 l 215 408 q 258 442 300 460 q 342 477 383 477 q 429 477 458 457 q 486 436 494 398 q 538 437 584 457 q 630 477 675 477 q 730 477 761 448 q 791 419 791 366 q 791 357 790 344 q 788 330 785 314 l 747 96 l 812 96 l 796 0 l 555 0 l 570 96 l 635 96 l 671 303 q 672 311 673 318 q 674 325 674 331 q 674 354 661 365 q 648 377 623 377 q 594 377 560 360 q 526 343 492 311 l 455 96 l 519 96 l 504 0 l 262 0 l 278 96 l 342 96 l 379 303 q 380 309 380 315 q 381 321 381 331 q 381 354 368 365 q 355 377 330 377 q 301 377 269 360 q 236 344 200 311 l 162 96 l 227 96 l 210 0 l -33 0 l -16 96 l 48 96 l 97 369 l 32 369 l 49 465 z"},"#":{"x_min":0,"x_max":769,"ha":769,"o":"m 346 416 l 302 292 l 427 292 l 471 416 z m 359 713 l 452 713 l 377 500 l 499 500 l 575 713 l 668 713 l 593 500 l 735 500 l 706 416 l 563 416 l 519 293 l 670 293 l 640 209 l 490 209 l 414 -3 l 321 -3 l 397 209 l 274 209 l 197 -3 l 104 -3 l 180 209 l 34 209 l 64 293 l 209 293 l 253 416 l 99 416 l 129 500 l 283 500 z"},",":{"x_min":0,"x_max":264,"ha":264,"o":"m -39 -95 l 62 117 l 187 117 l 85 -95 z"},"n":{"x_min":0,"x_max":604,"ha":604,"o":"m 397 303 q 398 311 399 318 q 400 325 400 331 q 400 354 385 365 q 371 377 344 377 q 313 377 277 361 q 242 344 201 311 l 164 96 l 229 96 l 212 0 l -33 0 l -16 96 l 48 96 l 97 369 l 32 369 l 49 465 l 229 465 l 219 411 q 262 443 307 460 q 352 477 396 477 q 455 477 488 448 q 521 418 521 366 q 521 358 520 345 q 518 333 515 314 l 476 96 l 541 96 l 524 0 l 279 0 l 296 96 l 361 96 z"},"h":{"x_min":0,"x_max":604,"ha":604,"o":"m 397 303 q 398 311 399 318 q 400 325 400 331 q 400 354 385 365 q 371 377 344 377 q 313 377 277 361 q 242 344 201 311 l 164 96 l 229 96 l 212 0 l -33 0 l -16 96 l 48 96 l 141 624 l 76 624 l 93 720 l 273 720 l 219 411 q 262 443 307 460 q 352 477 396 477 q 455 477 488 448 q 521 418 521 366 q 521 358 520 345 q 518 333 515 314 l 476 96 l 541 96 l 524 0 l 279 0 l 296 96 l 361 96 z"},"z":{"x_min":0,"x_max":463,"ha":463,"o":"m 287 92 l 300 161 l 401 161 l 373 0 l -29 0 l -12 96 l 271 372 l 136 372 l 125 307 l 24 307 l 52 465 l 426 465 l 409 367 l 123 92 z"},"B":{"x_min":0,"x_max":578,"ha":578,"o":"m 281 622 l 248 434 l 307 434 q 370 434 403 462 q 437 491 437 543 q 437 585 413 604 q 389 622 333 622 z m -34 0 l -17 98 l 59 98 l 152 622 l 75 622 l 93 720 l 341 720 q 447 720 506 675 q 565 630 565 549 q 565 486 527 443 q 490 400 422 386 q 476 366 506 324 q 535 283 535 226 q 535 179 517 138 q 500 96 467 66 q 429 31 376 15 q 322 0 228 0 z m 189 98 l 246 98 q 325 98 365 133 q 404 168 404 238 q 404 290 372 313 q 340 337 269 337 l 231 337 z"},"K":{"x_min":0,"x_max":659,"ha":659,"o":"m 186 98 l 263 98 l 245 0 l -37 0 l -19 98 l 57 98 l 149 622 l 72 622 l 90 720 l 372 720 l 355 622 l 278 622 l 236 387 l 481 622 l 429 622 l 446 720 l 689 720 l 671 622 l 631 622 l 369 372 l 526 98 l 589 98 l 572 0 l 316 0 l 333 98 l 393 98 l 234 375 z"},"R":{"x_min":0,"x_max":646,"ha":646,"o":"m 278 622 l 242 421 l 307 421 q 397 421 441 450 q 485 479 485 538 q 485 583 455 603 q 424 622 349 622 z m 186 98 l 251 98 l 234 0 l -37 0 l -19 98 l 57 98 l 149 622 l 72 622 l 90 720 l 374 720 q 488 720 552 676 q 616 631 616 552 q 616 490 580 445 q 544 401 469 369 q 504 353 521 330 q 539 307 539 278 q 539 267 538 255 q 537 243 534 230 l 510 98 l 581 98 l 563 0 l 361 0 l 398 210 q 401 226 402 240 q 404 254 404 266 q 404 300 385 314 q 366 328 318 328 l 225 328 z"},"T":{"x_min":0,"x_max":588,"ha":588,"o":"m 311 98 l 422 98 l 405 0 l 53 0 l 71 98 l 181 98 l 274 622 l 172 622 l 154 521 l 50 521 l 85 720 l 627 720 l 591 521 l 487 521 l 505 622 l 403 622 z"},"P":{"x_min":0,"x_max":593,"ha":593,"o":"m 277 622 l 232 366 l 278 366 q 365 366 414 403 q 462 440 462 507 q 462 564 421 594 q 381 623 303 623 q 292 623 287 623 q 282 623 277 622 z m 343 720 q 455 720 523 662 q 592 604 592 512 q 592 457 565 406 q 539 355 492 320 q 454 292 407 279 q 361 267 282 267 l 214 267 l 186 98 l 267 98 l 250 0 l -37 0 l -19 98 l 57 98 l 149 622 l 72 622 l 90 720 z"},"|":{"x_min":0,"x_max":500,"ha":500,"o":"m 207 764 l 294 764 l 294 -236 l 207 -236 z"},"t":{"x_min":0,"x_max":298,"ha":298,"o":"m 236 629 l 206 465 l 271 465 l 254 369 l 190 369 l 150 143 q 148 136 148 129 q 147 123 147 116 q 147 97 160 91 q 172 85 219 85 l 203 0 q 171 0 136 -1 q 128 -1 126 -1 q 68 -1 48 13 q 28 27 28 65 q 28 72 29 83 q 31 95 33 108 l 80 369 l 18 369 l 35 465 l 96 465 l 125 629 z"},"M":{"x_min":0,"x_max":877,"ha":877,"o":"m -37 0 l -19 98 l 57 98 l 149 622 l 73 622 l 90 720 l 341 720 l 424 289 l 653 720 l 911 720 l 894 622 l 818 622 l 725 98 l 802 98 l 784 0 l 514 0 l 531 98 l 603 98 l 698 598 l 426 98 l 357 98 l 262 598 l 180 98 l 251 98 l 234 0 z"},"g":{"x_min":0,"x_max":612,"ha":612,"o":"m 242 79 q 310 79 354 129 q 398 179 398 255 q 398 314 362 351 q 326 388 268 388 q 205 388 162 337 q 119 286 119 212 q 119 151 153 115 q 187 79 242 79 z m 428 465 l 610 465 l 593 369 l 527 369 l 468 35 q 445 -98 385 -153 q 326 -208 210 -208 q 154 -208 104 -194 q 54 -181 5 -152 l 31 -57 q 77 -84 118 -97 q 158 -110 198 -110 q 271 -110 310 -74 q 349 -38 356 38 q 324 14 288 2 q 251 -10 212 -10 q 120 -10 62 51 q 4 111 4 209 q 4 322 76 399 q 148 477 254 477 q 307 477 348 457 q 390 437 418 399 z"},"j":{"x_min":0,"x_max":278,"ha":278,"o":"m 81 543 l 103 664 l 250 664 l 228 543 z m 141 6 q 140 1 139 -8 q 117 -138 83 -170 q 62 -189 29 -199 q -4 -209 -47 -209 q -55 -209 -64 -209 q -72 -208 -82 -208 l -64 -106 l -52 -106 q 7 -106 24 -3 q 25 5 26 9 l 89 369 l 23 369 l 40 465 l 221 465 z"},"i":{"x_min":0,"x_max":294,"ha":294,"o":"m 90 543 l 111 664 l 258 664 l 237 543 z m 164 96 l 229 96 l 212 0 l -33 0 l -16 96 l 48 96 l 97 369 l 32 369 l 49 465 l 229 465 z"},"y":{"x_min":0,"x_max":516,"ha":516,"o":"m 213 155 l 340 369 l 279 369 l 296 465 l 514 465 l 497 369 l 451 369 l 160 -112 l 238 -112 l 220 -208 l -35 -208 l -19 -112 l 46 -112 l 137 37 l 42 369 l -12 369 l 5 465 l 230 465 l 213 369 l 153 369 z"},"@":{"x_min":0,"x_max":1000,"ha":1000,"o":"m 573 138 q 546 96 511 76 q 475 56 425 56 q 351 56 311 98 q 272 141 272 220 q 272 334 339 413 q 407 492 502 492 q 545 492 575 475 q 604 458 623 423 l 650 475 l 725 475 l 653 189 q 652 187 652 183 q 649 169 649 165 q 649 146 662 135 q 675 124 696 124 q 721 124 748 139 q 776 154 800 180 q 835 217 854 267 q 872 316 872 372 q 872 496 781 573 q 689 650 542 650 q 475 650 417 635 q 359 620 312 589 q 224 534 176 447 q 128 360 128 254 q 128 102 230 10 q 333 -81 503 -81 q 584 -81 661 -57 q 738 -33 803 12 l 836 -36 q 763 -91 680 -119 q 598 -147 507 -147 q 413 -147 335 -124 q 258 -100 198 -54 q 123 3 85 80 q 48 157 48 255 q 48 335 73 408 q 99 480 148 541 q 220 628 321 674 q 421 719 545 719 q 626 719 699 697 q 771 675 823 635 q 888 585 920 520 q 952 455 952 373 q 952 294 920 226 q 889 157 830 110 q 796 83 757 69 q 717 55 675 55 q 623 55 598 75 q 573 95 573 136 z m 602 345 q 595 386 572 409 q 549 431 512 431 q 450 431 406 368 q 362 306 362 217 q 362 169 384 143 q 406 117 447 117 q 491 117 527 150 q 562 182 575 234 z"},".":{"x_min":0,"x_max":264,"ha":264,"o":"m 106 -12 q 67 -12 42 13 q 16 39 16 77 q 16 115 42 140 q 67 165 106 165 q 144 165 169 139 q 195 114 195 77 q 195 40 169 14 q 143 -12 106 -12 z"},"p":{"x_min":0,"x_max":618,"ha":618,"o":"m 335 385 q 266 385 222 335 q 178 286 178 207 q 178 150 215 114 q 251 78 309 78 q 373 78 415 129 q 458 179 458 253 q 458 314 425 350 q 392 385 335 385 z m 97 369 l 31 369 l 48 465 l 230 465 l 221 427 q 254 451 290 464 q 326 476 364 476 q 456 476 515 415 q 573 354 573 256 q 573 144 501 66 q 429 -12 323 -12 q 271 -12 229 8 q 187 28 159 67 l 128 -112 l 196 -112 l 179 -208 l -68 -208 l -51 -112 l 12 -112 z"},"X":{"x_min":0,"x_max":612,"ha":612,"o":"m 145 98 l 209 98 l 191 0 l -52 0 l -35 98 l 6 98 l 239 368 l 116 622 l 58 622 l 75 720 l 325 720 l 307 622 l 248 622 l 317 461 l 450 622 l 385 622 l 403 720 l 648 720 l 630 622 l 589 622 l 366 359 l 488 98 l 557 98 l 540 0 l 277 0 l 294 98 l 359 98 l 286 267 z"},"*":{"x_min":0,"x_max":500,"ha":500,"o":"m 222 720 l 323 720 l 306 568 l 442 641 l 478 547 l 321 503 l 437 400 l 362 334 l 269 459 l 177 334 l 102 400 l 218 503 l 61 547 l 97 641 l 236 568 z"},"Y":{"x_min":0,"x_max":646,"ha":646,"o":"m 358 98 l 450 98 l 433 0 l 118 0 l 136 98 l 228 98 l 269 335 l 114 622 l 55 622 l 73 720 l 332 720 l 314 622 l 244 622 l 346 431 l 510 622 l 436 622 l 453 720 l 697 720 l 680 622 l 634 622 l 394 342 z"},"c":{"x_min":0,"x_max":525,"ha":525,"o":"m 464 297 l 384 297 q 372 337 340 359 q 308 381 263 381 q 203 381 162 337 q 121 292 121 228 q 121 164 156 126 q 192 88 252 88 q 287 88 320 103 q 353 117 387 148 l 445 69 q 400 28 350 8 q 299 -12 243 -12 q 139 -12 71 54 q 3 120 3 222 q 3 330 75 404 q 148 477 253 477 q 301 477 338 460 q 375 444 397 413 l 403 465 l 491 465 z"},"!":{"x_min":0,"x_max":272,"ha":272,"o":"m 60 225 l 93 442 q 94 451 98 473 q 118 605 128 720 l 281 720 q 257 635 239 562 q 220 488 205 422 l 162 225 z m 95 -12 q 56 -12 31 13 q 6 39 6 77 q 6 115 31 140 q 57 165 95 165 q 132 165 158 139 q 184 114 184 77 q 184 40 158 14 q 132 -12 95 -12 z"},"/":{"x_min":0,"x_max":333,"ha":333,"o":"m 315 734 l 70 -93 l 2 -93 l 248 734 z"},"[":{"x_min":0,"x_max":343,"ha":343,"o":"m 142 720 l 373 720 l 358 634 l 240 634 l 128 0 l 246 0 l 231 -85 l 1 -85 z"},"6":{"x_min":0,"x_max":528,"ha":528,"o":"m 386 513 q 387 516 387 519 q 387 522 387 529 q 387 568 367 591 q 346 613 310 613 q 258 613 231 571 q 204 529 180 393 q 204 410 229 418 q 255 427 284 427 q 366 427 420 372 q 473 316 473 231 q 473 127 407 56 q 340 -14 241 -14 q 147 -14 91 42 q 34 98 34 192 q 34 205 35 219 q 37 232 39 248 l 78 480 q 98 599 157 657 q 217 715 318 715 q 401 715 451 670 q 500 626 500 551 q 500 541 500 533 q 500 525 499 518 z m 351 227 q 351 274 326 301 q 302 327 258 327 q 210 327 183 291 q 155 254 155 191 q 155 143 180 115 q 205 88 249 88 q 296 88 323 125 q 351 163 351 227 z"},"r":{"x_min":0,"x_max":387,"ha":387,"o":"m 219 408 l 228 408 q 238 441 260 459 q 282 477 311 477 q 344 477 364 457 q 384 437 384 404 q 384 366 359 341 q 334 316 296 316 q 266 316 248 333 q 230 350 224 383 l 215 383 l 164 96 l 238 96 l 221 0 l -33 0 l -16 96 l 48 96 l 97 369 l 32 369 l 49 465 l 229 465 z"},"2":{"x_min":0,"x_max":528,"ha":528,"o":"m 435 0 l -18 0 l 8 109 l 253 348 q 331 423 355 459 q 379 496 379 526 q 379 566 354 590 q 329 613 285 613 q 229 613 199 571 q 170 529 169 448 l 55 448 q 60 582 118 648 q 176 715 288 715 q 382 715 439 665 q 496 616 496 535 q 496 477 464 422 q 432 368 357 298 l 146 103 l 338 103 l 360 194 l 474 194 z"},"{":{"x_min":0,"x_max":500,"ha":500,"o":"m 427 721 l 427 634 q 423 634 415 634 q 407 635 404 635 q 351 635 332 615 q 313 594 313 530 l 313 412 q 313 336 292 304 q 270 272 214 259 q 270 246 291 214 q 313 182 313 106 l 313 -11 q 313 -76 332 -96 q 352 -117 405 -117 q 408 -117 416 -117 q 423 -116 427 -116 l 427 -202 l 396 -202 q 346 -202 315 -196 q 284 -190 263 -178 q 235 -162 224 -131 q 213 -101 213 -32 l 213 89 q 213 159 187 188 q 162 217 100 217 q 97 217 90 216 q 83 216 79 216 l 79 303 q 83 303 90 302 q 97 302 100 302 q 162 302 187 331 q 213 359 213 429 l 213 550 q 213 621 224 651 q 235 681 263 697 q 285 710 316 716 q 348 721 405 721 z"},"9":{"x_min":0,"x_max":528,"ha":528,"o":"m 180 474 q 180 428 205 401 q 229 375 272 375 q 320 375 348 412 q 377 449 377 512 q 377 559 352 586 q 327 613 283 613 q 236 613 208 575 q 180 537 180 474 z m 143 190 q 143 187 142 183 q 142 179 142 171 q 142 132 162 111 q 181 90 218 90 q 268 90 294 129 q 321 169 351 313 q 337 295 308 285 q 279 275 243 275 q 164 275 111 330 q 58 385 58 470 q 58 574 125 644 q 191 715 291 715 q 384 715 440 659 q 496 603 496 509 q 496 492 495 478 q 494 464 491 451 l 450 220 q 429 103 369 45 q 310 -13 210 -13 q 126 -13 77 32 q 28 77 28 153 q 28 166 28 174 q 28 182 29 190 z"}," ":{"x_min":0,"x_max":264,"ha":264,"o":""},"I":{"x_min":0,"x_max":338,"ha":338,"o":"m 186 98 l 263 98 l 245 0 l -37 0 l -19 98 l 57 98 l 149 622 l 72 622 l 90 720 l 372 720 l 355 622 l 278 622 z"},"H":{"x_min":0,"x_max":756,"ha":756,"o":"m 515 324 l 225 324 l 185 98 l 262 98 l 244 0 l -38 0 l -20 98 l 56 98 l 148 622 l 72 622 l 89 720 l 371 720 l 354 622 l 278 622 l 245 438 l 535 438 l 568 622 l 491 622 l 509 720 l 791 720 l 773 622 l 697 622 l 605 98 l 681 98 l 664 0 l 382 0 l 399 98 l 475 98 z"},"4":{"x_min":0,"x_max":528,"ha":528,"o":"m 124 252 l 284 252 l 352 578 z m 145 0 l 161 90 l 256 90 l 270 166 l 5 166 l 23 267 l 340 701 l 476 701 l 397 252 l 484 252 l 469 166 l 381 166 l 368 90 l 456 90 l 440 0 z"},"~":{"x_min":0,"x_max":833,"ha":833,"o":"m 747 383 l 747 293 q 697 258 651 241 q 604 224 561 224 q 540 224 516 228 q 492 232 468 241 q 456 245 431 254 q 327 290 275 290 q 235 290 190 271 q 145 253 87 212 l 87 303 q 139 338 186 356 q 232 373 276 373 q 306 373 337 367 q 368 361 419 344 q 426 342 440 336 q 520 308 562 308 q 604 308 648 326 q 693 344 747 383 z"},"D":{"x_min":0,"x_max":750,"ha":750,"o":"m 358 622 l 277 622 l 185 98 l 265 98 q 339 98 382 106 q 424 114 458 132 q 519 165 557 241 q 594 317 594 410 q 594 517 536 570 q 477 622 358 622 z m -38 0 l -20 98 l 56 98 l 148 622 l 72 622 l 89 720 l 359 720 q 449 720 506 708 q 562 696 602 670 q 662 632 693 565 q 724 498 724 409 q 724 321 695 241 q 666 162 613 104 q 562 48 488 24 q 415 0 278 0 z"},"^":{"x_min":0,"x_max":1000,"ha":1000,"o":"m 447 713 l 553 713 l 795 439 l 694 439 l 500 633 l 305 439 l 204 439 z"},"0":{"x_min":0,"x_max":528,"ha":528,"o":"m 338 219 l 386 483 q 388 494 389 505 q 390 517 390 528 q 390 569 368 590 q 345 611 302 611 q 252 611 227 583 q 202 556 189 483 l 142 219 q 140 207 138 195 q 137 184 137 173 q 137 132 160 112 q 182 91 227 91 q 276 91 301 118 q 325 146 338 219 z m 467 262 q 438 97 384 41 q 330 -14 216 -14 q 122 -14 71 34 q 20 82 20 171 q 20 189 22 212 q 24 234 29 262 l 61 440 q 90 605 144 660 q 198 715 312 715 q 407 715 457 667 q 508 620 508 531 q 508 515 506 493 q 503 472 498 440 z"},"F":{"x_min":0,"x_max":556,"ha":556,"o":"m 186 98 l 275 98 l 257 0 l -37 0 l -19 98 l 57 98 l 149 622 l 72 622 l 90 720 l 597 720 l 573 530 l 466 530 l 478 622 l 278 622 l 247 442 l 417 442 l 400 331 l 226 331 z"},"`":{"x_min":0,"x_max":500,"ha":500,"o":"m 341 531 l 284 531 l 136 701 l 240 701 z"},"k":{"x_min":0,"x_max":562,"ha":562,"o":"m -33 0 l -16 96 l 48 96 l 141 624 l 76 624 l 93 720 l 273 720 l 192 254 l 357 369 l 301 369 l 318 465 l 556 465 l 539 369 l 488 369 l 301 239 l 455 96 l 500 96 l 484 0 l 270 0 l 286 96 l 327 96 l 187 228 l 164 96 l 229 96 l 212 0 z"},"u":{"x_min":0,"x_max":594,"ha":594,"o":"m 163 162 q 162 158 162 152 q 161 146 161 134 q 161 111 175 100 q 189 88 216 88 q 272 88 316 119 q 360 150 368 198 l 397 369 l 332 369 l 349 465 l 529 465 l 464 96 l 529 96 l 512 0 l 331 0 l 341 54 q 298 21 253 5 q 208 -12 164 -12 q 105 -12 72 17 q 39 47 39 99 q 39 107 41 120 q 42 133 45 151 l 84 369 l 19 369 l 36 465 l 219 465 z"},"]":{"x_min":0,"x_max":343,"ha":343,"o":"m 194 -85 l -36 -85 l -22 0 l 97 0 l 209 634 l 90 634 l 105 719 l 336 719 z"},"U":{"x_min":0,"x_max":692,"ha":692,"o":"m 588 269 q 564 130 489 58 q 414 -14 293 -14 q 193 -14 133 43 q 73 101 73 196 q 73 213 75 232 q 77 251 80 270 l 144 622 l 68 622 l 85 720 l 368 720 l 350 622 l 274 622 l 210 267 q 206 246 203 227 q 201 209 201 200 q 201 155 229 128 q 257 101 305 101 q 365 101 406 145 q 446 188 459 267 l 519 622 l 454 622 l 472 720 l 731 720 l 714 622 l 649 622 z"},"o":{"x_min":0,"x_max":561,"ha":561,"o":"m 398 251 q 398 307 362 344 q 326 382 271 382 q 208 382 165 335 q 121 288 121 220 q 121 161 158 123 q 195 85 253 85 q 314 85 356 133 q 398 181 398 251 z m 252 -11 q 142 -11 73 54 q 3 119 3 222 q 3 330 79 404 q 155 477 268 477 q 376 477 446 414 q 515 350 515 252 q 515 139 440 64 q 365 -11 252 -11 z"},"N":{"x_min":0,"x_max":729,"ha":729,"o":"m 172 98 l 249 98 l 231 0 l -37 0 l -19 98 l 57 98 l 149 622 l 72 622 l 90 720 l 317 720 l 489 239 l 556 622 l 480 622 l 497 720 l 766 720 l 748 622 l 672 622 l 560 -14 l 453 -14 l 252 549 z"},"+":{"x_min":0,"x_max":833,"ha":833,"o":"m 375 596 l 458 596 l 458 339 l 709 339 l 709 258 l 458 258 l 458 0 l 375 0 l 375 258 l 124 258 l 124 339 l 375 339 z"},"G":{"x_min":0,"x_max":824,"ha":824,"o":"m 592 77 q 551 32 497 9 q 442 -13 372 -13 q 223 -13 125 83 q 27 179 27 324 q 27 503 143 619 q 259 735 436 735 q 516 735 572 712 q 628 689 666 642 l 679 720 l 780 720 l 736 473 l 635 473 q 620 546 570 582 q 520 617 433 617 q 316 617 238 536 q 159 455 159 337 q 159 229 225 166 q 290 103 401 103 q 468 103 526 138 q 583 173 620 237 l 456 237 l 474 335 l 814 335 l 797 237 l 721 237 l 680 0 l 578 0 z"},"q":{"x_min":0,"x_max":612,"ha":612,"o":"m 242 79 q 310 79 354 129 q 398 179 398 255 q 398 314 362 351 q 326 388 268 388 q 205 388 162 337 q 119 286 119 212 q 119 151 153 115 q 187 79 242 79 z m 428 465 l 610 465 l 593 369 l 527 369 l 442 -112 l 509 -112 l 492 -208 l 242 -208 l 259 -112 l 327 -112 l 356 38 q 324 14 288 2 q 251 -10 212 -10 q 120 -10 62 51 q 4 111 4 209 q 4 322 76 399 q 148 477 254 477 q 307 477 348 457 q 390 437 418 399 z"},"d":{"x_min":0,"x_max":617,"ha":617,"o":"m 458 624 l 372 624 l 388 720 l 588 720 l 479 96 l 546 96 l 529 0 l 347 0 l 356 38 q 324 14 288 2 q 251 -10 212 -10 q 120 -10 62 51 q 4 111 4 209 q 4 322 76 399 q 148 477 254 477 q 307 477 348 457 q 390 437 418 399 z m 242 79 q 310 79 354 129 q 398 179 398 255 q 398 314 362 351 q 326 388 268 388 q 205 388 162 337 q 119 286 119 212 q 119 151 153 115 q 187 79 242 79 z"},"1":{"x_min":0,"x_max":528,"ha":528,"o":"m 358 0 l 69 0 l 85 90 l 168 90 l 260 611 l 168 611 l 184 701 l 396 701 l 288 90 l 374 90 z"},"5":{"x_min":0,"x_max":528,"ha":528,"o":"m 12 222 l 127 222 q 126 218 126 213 q 126 208 126 200 q 126 145 149 117 q 172 90 219 90 q 275 90 310 131 q 344 172 344 240 q 344 300 308 330 q 272 359 198 359 q 179 359 154 358 q 129 357 99 356 l 160 701 l 498 701 l 480 598 l 260 598 l 234 459 l 239 459 q 346 459 404 402 q 463 346 463 243 q 463 129 393 58 q 323 -13 211 -13 q 119 -13 64 39 q 10 92 10 179 q 10 181 11 196 q 12 210 12 222 z"}}}
